<?xml version="1.0" standalone="no"?><!DOCTYPE svg PUBLIC "-//W3C//DTD SVG 1.1//EN" "http://www.w3.org/Graphics/SVG/1.1/DTD/svg11.dtd"><svg t="1492430968603" class="icon" style="" viewBox="0 0 1024 1024" version="1.1" xmlns="http://www.w3.org/2000/svg" p-id="8493" xmlns:xlink="http://www.w3.org/1999/xlink" width="32" height="32"><defs><style type="text/css"></style></defs><path d="M161.822039 413.954987c54.146373 0 98.050054 43.901883 98.050054 98.046037s-43.902658 98.046037-98.050054 98.046037c-54.146373 0-98.050054-43.901883-98.050054-98.046037S107.67669 413.954987 161.822039 413.954987zM511.999488 413.954987c54.146373 0 98.050054 43.901883 98.050054 98.046037s-43.902658 98.046037-98.050054 98.046037c-54.146373 0-98.050054-43.901883-98.050054-98.046037S457.853116 413.954987 511.999488 413.954987zM862.175914 413.954987c54.146373 0 98.050054 43.901883 98.050054 98.046037s-43.902658 98.046037-98.050054 98.046037c-54.145349 0-98.050054-43.901883-98.050054-98.046037S808.030565 413.954987 862.175914 413.954987z" p-id="8494" fill="#bfbfbf"></path></svg>