<?xml version="1.0" standalone="no"?><!DOCTYPE svg PUBLIC "-//W3C//DTD SVG 1.1//EN" "http://www.w3.org/Graphics/SVG/1.1/DTD/svg11.dtd"><svg t="1492428120684" class="icon" style="" viewBox="0 0 1024 1024" version="1.1" xmlns="http://www.w3.org/2000/svg" p-id="3533" xmlns:xlink="http://www.w3.org/1999/xlink" width="32" height="32"><defs><style type="text/css"></style></defs><path d="M881.954133 937.719467h-734.037333c-73.088 0-132.548267-59.460267-132.548267-132.548267V227.0208c0-73.079467 59.460267-132.5312 132.548267-132.5312h734.037333c73.088 0 132.548267 59.451733 132.548267 132.5312v578.141867c0.008533 73.096533-59.451733 132.5568-132.548267 132.5568zM147.9168 154.965333c-39.739733 0-72.072533 32.324267-72.072533 72.055467v578.141867c0 39.739733 32.3328 72.081067 72.072533 72.081066h734.037333c39.739733 0 72.081067-32.341333 72.081067-72.081066V227.0208c0-39.7312-32.341333-72.055467-72.081067-72.055467h-734.037333z" fill="#7f98f5" p-id="3534"></path><path d="M686.6688 571.904c-71.287467 0-129.288533-57.992533-129.288533-129.28 0-71.296 58.001067-129.3056 129.288533-129.3056 71.296 0 129.3056 58.0096 129.3056 129.3056 0 71.278933-58.0096 129.28-129.3056 129.28z m0-198.1184c-37.947733 0-68.821333 30.882133-68.821333 68.829867 0 37.947733 30.8736 68.8128 68.821333 68.8128 37.956267 0 68.8384-30.865067 68.8384-68.8128 0-37.956267-30.882133-68.829867-68.8384-68.829867z" fill="#7f98f5" p-id="3535"></path><path d="M866.346667 710.485333l-60.347734-3.899733c0.1792-2.705067 0.247467-5.444267 0.247467-8.192 0-69.521067-54.186667-126.08-120.7808-126.08-66.6112 0-120.8064 56.558933-120.8064 126.08 0 2.781867 0.093867 5.5296 0.256 8.2688l-60.356267 3.746133a193.527467 193.527467 0 0 1-0.375466-12.014933c0-102.869333 81.322667-186.555733 181.282133-186.555733 99.9424 0 181.248 83.6864 181.248 186.555733 0 4.061867-0.1024 8.081067-0.366933 12.091733zM436.181333 721.7152H169.028267V661.248h267.153066v60.4672z m0-172.142933H169.028267v-60.4672h267.153066v60.4672z m0-173.764267H169.028267v-60.475733h267.153066v60.475733z" fill="#7f98f5" p-id="3536"></path></svg>